# xmcd
#
# Track frame offsets:
#	150
#	16179
#	27481
#	40414
#	55561
#	68879
#	94655
#	107658
#	121782
#	134709
#	149061
#	163983
#
# Disc length: 2430 seconds
#
# Revision: 0
# Processed by: cddbd v1.5.1PL2 Copyright (c) Steve Scherf et al.
# Submitted via: dBpowerAMP V4.0
#
DISCID=ab097c0c
DTITLE=Catfish - Same Thing Everyday
DYEAR=2004
DGENRE=Blues
TTITLE0=Who's Booging My Woogie
TTITLE1=Too Much Monkey Business
TTITLE2=Bopping The Blues
TTITLE3=What About Love?
TTITLE4=Drunk
TTITLE5=I Wanna Play With Your Poodle
TTITLE6=Try
TTITLE7=Shaking All Over
TTITLE8=Naughty Sweetie
TTITLE9=You Rascal, You
TTITLE10=Don't You Know That I Love You
TTITLE11=Laughing Inside
EXTD=More information at http://www.catfishmusic.be
EXTT0=
EXTT1=
EXTT2=
EXTT3=
EXTT4=
EXTT5=
EXTT6=
EXTT7=
EXTT8=
EXTT9=
EXTT10=
EXTT11=
PLAYORDER=
